HIERARCHY
ROOT Hips
{
	OFFSET 0.000000 0.000000 0.000000 
	CHANNELS 6 Xposition Yposition Zposition Yrotation Zrotation Xrotation 
	JOINT Lumbar
	{
		OFFSET 0.000000 0.000000 0.000000 
		CHANNELS 3 Zrotation Xrotation Yrotation
		JOINT Neck
		{
			OFFSET 0.000000 0.445665 0.000000 
			CHANNELS 3 Zrotation Xrotation Yrotation
			End Site
			{
				OFFSET 0.000000 0.227535 0.000000 
			}
		}
		JOINT RightShoulder
		{
			OFFSET 0.019635 0.377685 0.194865 
			CHANNELS 3 Zrotation Xrotation Yrotation
			JOINT RightElbow
			{
				OFFSET 0.000000 -0.243375 0.000000 
				CHANNELS 2 Zrotation Yrotation
				JOINT RightWrist
				{
					OFFSET 0.000000 -0.264825 0.000000 
					CHANNELS 2 Zrotation Xrotation
					End Site
					{
						OFFSET 0.006600 -0.176220 0.000990 
					}
				}
			}
		}
		JOINT LeftShoulder
		{
			OFFSET 0.019635 0.377685 -0.194865 
			CHANNELS 3 Zrotation Xrotation Yrotation
			JOINT LeftElbow
			{
				OFFSET 0.000000 -0.243375 0.000000 
				CHANNELS 2 Zrotation Yrotation
				JOINT LeftWrist
				{
					OFFSET 0.000000 -0.264825 0.000000 
					CHANNELS 2 Zrotation Xrotation
					End Site
					{
						OFFSET 0.006600 -0.176220 -0.000990 
					}
				}
			}
		}
	}
	JOINT RightHip
	{
		OFFSET 0.052140 -0.069960 0.075570 
		CHANNELS 3 Zrotation Xrotation Yrotation
		JOINT RightKnee
		{
			OFFSET 0.000000 -0.402270 0.000000 
			CHANNELS 1 Zrotation
			JOINT RightAnkle
			{
				OFFSET 0.000000 -0.404085 0.000000 
				CHANNELS 3 Zrotation Xrotation Yrotation
				End Site
				{
					OFFSET 0.204105 -0.089430 0.008415 
				}
			}
		}
	}
	JOINT LeftHip
	{
		OFFSET 0.052140 -0.069960 -0.075570 
		CHANNELS 3 Zrotation Xrotation Yrotation
		JOINT LeftKnee
		{
			OFFSET 0.000000 -0.402270 0.000000 
			CHANNELS 1 Zrotation
			JOINT LeftAnkle
			{
				OFFSET 0.000000 -0.404085 0.000000 
				CHANNELS 3 Zrotation Xrotation Yrotation
				End Site
				{
					OFFSET 0.204105 -0.089430 -0.008415 
				}
			}
		}
	}
}
MOTION
Frames: 19
Frame Time: 0.02
-2e-05 -2e-05 -0.00024 24.55861 -21.85572 -7.07751 45.49917 2.15623 -4.18771 -6.11762 -2.37439 -0.35927 -14.53853 -2.97495 5.04643 28.32174 100.29816 6.18291 3.4287 -16.45233 6.14145 -7.03196 28.99859 -105.47851 14.52605 -1.1449 33.97754 -0.12487 -5.44549 -20.95324 -8.80415 -5.12631 -3.47612 36.92089 7.99427 4.31072 -26.996 -8.6982 4.62274 3.20278
-4e-05 -3e-05 -0.00012 24.55008 -21.85861 -7.07661 45.48646 2.15623 -4.20055 -6.11594 -2.37275 -0.35942 -14.5253 -2.97523 5.04342 28.31876 100.32444 6.18204 3.42587 -16.42612 6.10643 -6.95895 28.97542 -106.63287 14.69681 -1.40541 33.9781 -0.18569 -5.8131 -20.9516 -8.76496 -5.08945 -3.45486 36.92984 7.97475 4.20498 -26.99502 -8.71011 4.63322 3.20979
-7e-05 -4e-05 0 24.54154 -21.86153 -7.07571 45.47382 2.15623 -4.21336 -6.11427 -2.37112 -0.35958 -14.51207 -2.97571 5.04128 28.31577 100.34726 6.18055 3.42207 -16.39997 6.0715 -6.88622 28.95231 -107.78384 14.86703 -1.66508 33.97872 -0.24627 -6.17938 -20.94997 -8.7259 -5.05272 -3.43368 36.93882 7.95532 4.09955 -26.99404 -8.72199 4.64366 3.21678
-0.0001 -5e-05 0.00012 24.53303 -21.86442 -7.07482 45.46116 2.15624 -4.22617 -6.1126 -2.36949 -0.35973 -14.49886 -2.97602 5.03845 28.3128 100.3728 6.17956 3.41906 -16.37383 6.03659 -6.81345 28.9292 -108.93465 15.03726 -1.92477 33.97929 -0.3069 -6.54584 -20.94834 -8.68683 -5.01597 -3.4125 36.94775 7.93586 3.99413 -26.99307 -8.73387 4.6541 3.22377
-0.00013 -6e-05 0.00024 24.52456 -21.86726 -7.07391 45.44841 2.15625 -4.23898 -6.11093 -2.36786 -0.35989 -14.48568 -2.97603 5.03435 28.30983 100.40336 6.17948 3.41745 -16.34766 6.00157 -6.74038 28.90605 -110.08883 15.20802 -2.18531 33.97976 -0.36778 -6.91364 -20.94669 -8.64761 -4.9791 -3.39123 36.95664 7.91633 3.88839 -26.99208 -8.74578 4.66457 3.23078
-0.00015 -6e-05 0.00036 24.51588 -21.87036 -7.07304 45.43598 2.15622 -4.25179 -6.10926 -2.36624 -0.36004 -14.47235 -2.97749 5.03625 28.30682 100.41012 6.17509 3.40912 -16.32156 5.96685 -6.66836 28.88303 -111.23301 15.37711 -2.44313 33.98069 -0.42773 -7.27672 -20.94512 -8.60889 -4.94267 -3.37023 36.96579 7.89709 3.78362 -26.99114 -8.75759 4.67495 3.23773
-0.00018 -7e-05 0.00048 24.50761 -21.87294 -7.07209 45.42295 2.15628 -4.26461 -6.10757 -2.36459 -0.3602 -14.45932 -2.97609 5.02632 28.30388 100.46386 6.17919 3.41407 -16.29532 5.93156 -6.59433 28.85976 -112.39588 15.54935 -2.70611 33.98071 -0.4895 -7.64899 -20.94339 -8.56921 -4.90538 -3.34872 36.97443 7.87727 3.67701 -26.9901 -8.76958 4.6855 3.24479
-0.00021 -8e-05 0.0006 24.49897 -21.87597 -7.07121 45.41044 2.15625 -4.2774 -6.10592 -2.36298 -0.36035 -14.44604 -2.97722 5.02688 28.3009 100.47596 6.17577 3.40725 -16.26922 5.8968 -6.5221 28.83672 -113.54183 15.71874 -2.96442 33.98153 -0.54957 -8.01261 -20.9418 -8.53043 -4.86889 -3.32769 36.98349 7.85799 3.57212 -26.98915 -8.78141 4.6959 3.25175
-0.00023 -9e-05 0.00072 24.48986 -21.87969 -7.07046 45.39868 2.15612 -4.29023 -6.10425 -2.36136 -0.36051 -14.43232 -2.98189 5.04207 28.29777 100.4299 6.16181 3.38396 -16.24325 5.86267 -6.45225 28.81396 -114.66636 15.88452 -3.21676 33.9835 -0.60768 -8.36645 -20.94044 -8.49266 -4.83332 -3.3072 36.99328 7.83938 3.46921 -26.98834 -8.79304 4.7061 3.25858
-0.00027 -0.0001 0.00084 24.48341 -21.87988 -7.06908 45.38296 2.1566 -4.30306 -6.1025 -2.35964 -0.36067 -14.42073 -2.96753 4.97855 28.29521 100.69655 6.20447 3.44918 -16.21641 5.82486 -6.36927 28.78956 -115.91194 16.07068 -3.50266 33.9794 -0.67742 -8.77897 -20.93791 -8.44883 -4.79227 -3.28345 36.99951 7.81694 3.35454 -26.98682 -8.80582 4.71741 3.26615
-0.00028 -0.0001 0.00097 24.47136 -21.88721 -7.06898 45.37536 2.15578 -4.31576 -6.10102 -2.35821 -0.36082 -14.40489 -2.99247 5.0775 28.29165 100.31779 6.13031 3.33177 -16.1915 5.79485 -6.31363 28.76868 -116.90341 16.21409 -3.71825 33.98774 -0.72237 -9.06612 -20.93775 -8.41795 -4.76294 -3.26668 37.01285 7.80257 3.26491 -26.98671 -8.81616 4.72638 3.27215
-0.00024 -9e-05 0.0011 24.44377 -21.9169 -7.07289 45.39236 2.15158 -4.32929 -6.09967 -2.35682 -0.36092 -14.37542 -3.13335 5.65607 28.28366 98.03381 5.71098 2.67497 -16.17108 5.78636 -6.33692 28.75732 -117.17952 16.23696 -3.73487 34.03356 -0.7008 -9.01992 -20.94479 -8.42142 -4.76466 -3.26845 37.04935 7.81054 3.24278 -26.99115 -8.8198 4.72891 3.2739
-0.00017 -7e-05 0.00124 24.41062 -21.95328 -7.07804 45.4171 2.14603 -4.34249 -6.09872 -2.35582 -0.36101 -14.34206 -3.31213 6.39112 28.27502 95.12828 5.17924 1.84236 -16.15274 5.78575 -6.38717 28.74971 -117.203 16.21744 -3.68185 34.09128 -0.65419 -8.84669 -20.95406 -8.43805 -4.77828 -3.27731 37.0924 7.82658 3.24593 -26.99687 -8.821 4.72909 3.27406
-0.00012 -6e-05 0.00137 24.38008 -21.98476 -7.08226 45.43681 2.14099 -4.3551 -6.09801 -2.35517 -0.36112 -14.31173 -3.46839 7.03305 28.26777 92.59257 4.71461 1.11456 -16.13395 5.78135 -6.4222 28.74023 -117.35492 16.21955 -3.66489 34.14137 -0.61787 -8.72352 -20.96186 -8.44952 -4.78728 -3.2834 37.13001 7.8388 3.23844 -27.00156 -8.82328 4.73034 3.27491
-6e-05 -4e-05 0.00152 24.34904 -22.02398 -7.08789 45.46293 2.13642 -4.37083 -6.09551 -2.35244 -0.3612 -14.27597 -3.64742 7.76993 28.25582 89.67981 4.18074 0.27924 -16.11306 5.77752 -6.4688 28.73065 -117.45216 16.21191 -3.62988 34.20077 -0.58554 -8.62895 -20.97162 -8.45783 -4.79329 -3.2878 37.17776 7.85168 3.22781 -27.00815 -8.82562 4.73156 3.27589
-0 -2e-05 0.00164 24.31793 -22.04882 -7.09103 45.47751 2.13052 -4.38 -6.09683 -2.35394 -0.36132 -14.25072 -3.7876 8.34398 28.25361 87.41385 3.76617 -0.37129 -16.09708 5.77477 -6.49897 28.72316 -117.5992 16.21413 -3.61505 34.2437 -0.53966 -8.44913 -20.9778 -8.47547 -4.80796 -3.29715 37.20625 7.86508 3.22922 -27.0111 -8.82735 4.73231 3.27625
7e-05 -0 0.0017 24.28632 -22.031 -7.08584 45.45823 2.12158 -4.37097 -6.10873 -2.36845 -0.36155 -14.25423 -3.81491 8.44941 28.27737 87.00696 3.69292 -0.49129 -16.09354 5.77006 -6.4667 28.71284 -117.98071 16.25713 -3.68072 34.2375 -0.45635 -8.0264 -20.97368 -8.51907 -4.84679 -3.32051 37.17748 7.87813 3.26203 -27.00355 -8.82725 4.732 3.27505
0.00015 2e-05 0.00174 24.2552 -21.99877 -7.07833 45.42699 2.11125 -4.35534 -6.12447 -2.38685 -0.36183 -14.26852 -3.8015 8.38302 28.31106 87.28263 3.74571 -0.41635 -16.09493 5.76689 -6.41925 28.70637 -118.4133 16.31078 -3.76745 34.21455 -0.36128 -7.52879 -20.96585 -8.57104 -4.89337 -3.34825 37.12967 7.89146 3.30548 -26.99232 -8.82673 4.73131 3.27332
0.00022 5e-05 0.0018 24.22493 -21.97396 -7.07264 45.4014 2.10136 -4.34294 -6.13834 -2.40268 -0.36208 -14.27887 -3.80378 8.38116 28.34104 87.30395 3.75216 -0.41388 -16.0945 5.76475 -6.38518 28.70259 -118.80115 16.35765 -3.83979 34.19957 -0.27583 -7.09176 -20.95963 -8.61681 -4.93423 -3.37255 37.09208 7.90446 3.34091 -26.98285 -8.82693 4.73102 3.27205
